<svg width="22" height="20" viewBox="0 0 22 20" fill="none" xmlns="http://www.w3.org/2000/svg">
<g clip-path="url(#clip0_1158_3749)">
<path d="M12.5234 2.05428C14.2401 2.46846 15.9053 3.01934 17.5281 3.69555C18.2002 3.97805 18.8742 4.28126 19.3542 4.87078C19.7703 5.38489 19.9816 5.96677 20.0408 6.62181C20.1257 7.51904 20.0248 8.40066 19.8167 9.27794C19.7711 9.47678 19.7368 9.68499 19.7169 9.88973C19.6247 10.9692 19.3705 12.0181 18.8084 12.9357C18.1828 13.9535 17.3053 14.684 16.0168 14.6719C15.6316 14.6713 15.3607 14.7914 15.0959 15.0615C14.4411 15.735 13.7798 16.407 13.081 17.0367C12.6209 17.451 12.092 17.782 11.5779 18.1367C11.5069 18.1812 11.3375 18.1828 11.2885 18.131C11.2395 18.0793 11.2363 17.9165 11.2811 17.839C11.5358 17.3775 11.7662 16.9038 11.8147 16.368C11.9157 15.2501 11.4863 14.3818 10.5455 13.7676C9.87024 13.3223 9.10785 13.0798 8.33516 12.8823C6.98888 12.5329 5.64461 12.2041 4.30421 11.8291C3.84622 11.7037 3.41673 11.4836 2.99218 11.2714C2.39665 10.9795 2.08918 10.4633 2.05412 9.82057C1.97907 8.52722 2.01613 7.24609 2.20974 5.96037C2.35987 4.98201 2.73237 4.0952 3.10781 3.19555C3.18554 3.00408 3.30034 2.82786 3.40872 2.65016C3.83741 2.01931 4.37355 1.56841 5.1655 1.44629C6.26653 1.27355 7.36288 1.26854 8.45749 1.41843C9.81193 1.61443 11.1654 1.84398 12.5234 2.05428ZM12.0866 17.1866C12.1158 17.2068 12.1449 17.227 12.1741 17.2472C12.3882 17.0802 12.6122 16.9291 12.8035 16.7434C13.4811 16.0886 14.1636 15.4418 14.812 14.7668C15.1408 14.4236 15.4858 14.2462 15.9767 14.2576C17.1457 14.2895 17.9121 13.6011 18.4756 12.6771C18.8333 12.0907 19.0456 11.4305 19.1616 10.7481C19.2463 10.2611 19.291 9.77175 19.395 9.2892C19.5887 8.41539 19.6975 7.52883 19.6127 6.6316C19.5404 5.88581 19.2653 5.22851 18.635 4.79354C18.2316 4.51867 17.7996 4.25074 17.3405 4.07113C16.329 3.67698 15.316 3.28925 14.2696 2.98837C12.1268 2.3684 9.9369 1.9537 7.70192 1.76496C6.90622 1.69717 6.11119 1.74431 5.31576 1.85213C4.58401 1.94755 4.09324 2.34809 3.7376 2.9552C3.62628 3.14572 3.51348 3.34265 3.42638 3.54548C3.07797 4.3568 2.77598 5.17202 2.63014 6.04333C2.42315 7.29897 2.41913 8.55392 2.48228 9.81078C2.50476 10.3021 2.77396 10.6609 3.20747 10.9225C3.74775 11.249 4.34114 11.4324 4.93895 11.5966C6.11036 11.9126 7.28766 12.203 8.46495 12.4934C9.27122 12.6919 10.0564 12.9531 10.7637 13.4058C12.0569 14.2224 12.4867 15.5904 12.1573 16.8787C12.1337 16.9813 12.1102 17.084 12.0866 17.1866Z" fill="black"/>
<path d="M12.0866 17.1865C12.1101 17.0839 12.1336 16.9812 12.1572 16.8786C12.4866 15.5903 12.0569 14.2223 10.7637 13.4057C10.0484 12.958 9.2697 12.6983 8.4649 12.4933C7.2876 12.2029 6.11031 11.9126 4.9389 11.5965C4.34109 11.4323 3.74769 11.2489 3.20741 10.9224C2.77391 10.6608 2.51113 10.3035 2.48223 9.81069C2.41908 8.55383 2.4231 7.29888 2.63009 6.04323C2.77593 5.17193 3.07791 4.35671 3.42633 3.54539C3.51343 3.34256 3.62622 3.14562 3.73755 2.9551C4.09961 2.34948 4.58396 1.94746 5.31718 1.84562C6.11261 1.7378 6.90764 1.69066 7.70334 1.75846C9.93832 1.94719 12.1346 2.36337 14.2838 2.98481C15.3238 3.28422 16.3433 3.67342 17.3548 4.06757C17.8074 4.2457 18.2409 4.50722 18.6493 4.78998C19.2796 5.22495 19.5547 5.88225 19.6269 6.62804C19.7118 7.52527 19.6045 8.40541 19.4092 9.28565C19.3053 9.76819 19.2606 10.2576 19.1759 10.7446C19.0599 11.4269 18.8476 12.0871 18.4899 12.6735C17.9263 13.5975 17.1614 14.2795 15.9909 14.254C15.5 14.2426 15.1551 14.4201 14.8262 14.7632C14.1764 15.4446 13.4938 16.0915 12.8178 16.7399C12.6264 16.9255 12.396 17.0752 12.1884 17.2436C12.1449 17.2269 12.1157 17.2067 12.0866 17.1865ZM10.871 6.04361C10.8314 5.98051 10.7953 5.9317 10.7685 5.87155C10.4801 5.18417 9.95049 4.75207 9.27694 4.47598C8.36471 4.09111 7.42865 4.60554 7.28642 5.57895C7.25364 5.78075 7.28013 5.98938 7.3002 6.19655C7.35639 6.77661 7.55575 7.32201 7.86268 7.81106C8.4637 8.78622 9.10567 9.73026 9.73037 10.6906C9.85561 10.8814 10.0008 10.8674 10.1759 10.7523C10.6584 10.4174 11.1735 10.117 11.6298 9.74901C12.3598 9.16029 13.0685 8.54644 13.7624 7.90892C14.1155 7.57806 14.3242 7.13981 14.4203 6.66221C14.56 5.96504 14.157 5.3054 13.4693 5.12059C12.9149 4.97314 12.3856 5.04074 11.9056 5.33571C11.5547 5.53879 11.2415 5.78427 10.871 6.04361Z" fill="white"/>
<path d="M10.871 6.04366C11.2415 5.78432 11.5547 5.53884 11.8927 5.33281C12.3792 5.03932 12.9021 4.97024 13.4564 5.11769C14.1442 5.3025 14.5472 5.96214 14.4075 6.65931C14.3099 7.14333 14.1076 7.58305 13.7496 7.90602C13.0621 8.54501 12.347 9.15739 11.6169 9.74611C11.1607 10.1141 10.6456 10.4145 10.1631 10.7494C9.9929 10.8724 9.8413 10.8849 9.71754 10.6877C9.09284 9.72736 8.45234 8.7769 7.84985 7.80816C7.54934 7.32058 7.34998 6.77519 7.28736 6.19365C7.2673 5.98648 7.24723 5.77932 7.27358 5.57606C7.41582 4.60264 8.3583 4.08968 9.27201 4.46814C9.94408 4.75064 10.4751 5.17633 10.7636 5.86371C10.7953 5.93175 10.8378 5.98203 10.871 6.04366ZM10.0237 10.3258C11.2339 9.52993 12.3725 8.75139 13.334 7.74314C13.583 7.48293 13.7795 7.15667 13.9282 6.83292C14.2314 6.15977 13.8275 5.53367 13.0846 5.47125C12.5546 5.42392 12.1194 5.64139 11.7193 5.94121C11.3918 6.19015 11.0237 6.40954 11.0832 6.91609C11.0893 6.97824 10.9783 7.10809 10.9225 7.11554C10.8346 7.11563 10.7135 7.05408 10.6626 6.98162C10.5967 6.88549 10.5847 6.76119 10.5583 6.64036C10.5424 6.56243 10.568 6.48052 10.5442 6.40753C10.2891 5.63331 9.80827 5.07733 9.01377 4.82751C8.74845 4.74638 8.48326 4.75305 8.22516 4.87613C7.8057 5.08372 7.64769 5.41882 7.69746 5.99741C7.75365 6.57748 7.93227 7.12486 8.23921 7.61391C8.79567 8.51808 9.40593 9.39408 10.0237 10.3258Z" fill="black"/>
<path d="M10.0237 10.3258C9.40592 9.39405 8.80209 8.51953 8.23773 7.6203C7.93079 7.13125 7.74575 6.58239 7.69598 6.0038C7.64621 5.42521 7.80423 5.09011 8.22369 4.88252C8.48326 4.75302 8.74844 4.74635 9.0123 4.8339C9.80679 5.08373 10.2941 5.64117 10.5427 6.41393C10.5665 6.48691 10.5409 6.56882 10.5569 6.64675C10.5783 6.75969 10.5953 6.89188 10.6611 6.98801C10.7121 7.06047 10.8317 7.12843 10.9211 7.12193C10.9818 7.12237 11.0942 6.98611 11.0818 6.92249C11.0222 6.41593 11.3903 6.19654 11.7178 5.9476C12.1194 5.64137 12.5596 5.43178 13.0831 5.47765C13.826 5.54007 14.2314 6.15975 13.9267 6.83931C13.7766 7.16947 13.58 7.49573 13.3325 7.74953C12.3725 8.75136 11.226 9.53485 10.0237 10.3258Z" fill="black"/>
</g>
<defs>
<clipPath id="clip0_1158_3749">
<rect width="18.0479" height="15.9655" fill="white" transform="translate(3.57059) rotate(12.9232)"/>
</clipPath>
</defs>
</svg>
