<svg width="19" height="16" viewBox="0 0 19 16" fill="none" xmlns="http://www.w3.org/2000/svg">
<path d="M14.8759 5.15095C15.2451 4.86102 15.63 4.85318 16.3683 4.83751C16.9496 4.82184 17.3266 4.814 17.7036 5.07259C18.167 5.38604 18.3006 5.88755 18.332 6.01293C18.4734 6.61631 18.2142 7.11782 18.0963 7.34507C17.8293 7.85442 17.468 8.11301 16.7611 8.59885C16.1091 9.05335 15.575 9.28843 15.1901 9.46083C15.1194 9.49217 14.5932 9.64106 13.5407 9.93099C13.3993 9.97018 13.2422 10.0094 13.1479 9.93099C12.9358 9.7586 13.0537 9.06118 13.4621 8.75557C13.7056 8.57534 13.8313 8.69289 14.4047 8.52049C14.8445 8.38728 15.1509 8.20705 15.4258 8.05032C15.6614 7.90927 15.8421 7.77606 16.2112 7.50179C16.9339 6.9611 16.9888 6.83572 16.9967 6.71818C17.0124 6.4831 16.8396 6.27152 16.6825 6.16965C16.5961 6.1148 16.4704 6.05211 15.897 6.09129C15.2137 6.13831 14.8681 6.16181 14.5618 6.40473C14.3418 6.57713 14.2947 6.74169 14.2476 6.71818C14.1376 6.67116 14.2083 5.66814 14.8759 5.15095Z" fill="white"/>
<path d="M8.35661 6.09145C11.9138 6.09145 14.7974 4.75827 14.7974 3.11372C14.7974 1.46916 11.9138 0.135986 8.35661 0.135986C4.79945 0.135986 1.9158 1.46916 1.9158 3.11372C1.9158 4.75827 4.79945 6.09145 8.35661 6.09145Z" fill="white"/>
<path d="M9.02425 15.4162C13.6876 15.4162 17.468 13.6796 17.468 11.5373C17.468 9.39508 13.6876 7.65845 9.02425 7.65845C4.3609 7.65845 0.580505 9.39508 0.580505 11.5373C0.580505 13.6796 4.3609 15.4162 9.02425 15.4162Z" fill="white"/>
<path d="M17.3737 4.53182C16.926 4.47697 16.4862 4.48481 16.0463 4.59451C15.7557 4.66504 15.4651 4.71989 15.1194 4.79825C15.0409 4.42212 15.1037 4.13218 15.1823 3.84225C15.3472 3.19968 15.2137 2.61197 14.821 2.08695C14.6639 1.86754 14.4832 1.65596 14.279 1.47573C13.6978 0.942876 12.9987 0.637267 12.2446 0.433527C11.1057 0.127918 9.94324 0.0809012 8.78075 0.0182122C7.06844 -0.0679853 5.40325 0.151426 3.7852 0.684283C3.07828 0.919367 2.39492 1.20147 1.83724 1.72649C1.57019 1.97725 1.4288 2.26718 1.35811 2.61981C1.27171 3.08998 1.33455 3.55231 1.33455 4.02248C1.33455 5.55836 1.63302 7.02372 2.29281 8.41071C2.35565 8.53609 2.38707 8.67714 2.44205 8.83386C2.24569 8.92006 2.08074 8.98275 1.92365 9.04544C1.50735 9.22567 1.14604 9.47642 0.823995 9.78987C-0.0871434 10.6832 -0.244236 11.6784 0.360571 12.7754C0.454827 12.9478 0.580501 13.1046 0.706176 13.2613C1.20887 13.8647 1.85295 14.28 2.57558 14.5777C3.35319 14.899 4.17793 15.1028 5.01838 15.2203C6.96633 15.5102 8.92999 15.5024 10.8936 15.4162C11.7341 15.377 12.5745 15.2517 13.3914 15.0322C14.5539 14.7188 15.6221 14.2016 16.549 13.418C17.0124 13.0262 17.3266 12.5247 17.5073 11.9448C17.8057 11.0045 17.523 10.2444 16.7925 9.61747C16.6668 9.50777 16.4626 9.48426 16.439 9.2335C16.5254 9.17865 16.6354 9.1238 16.7297 9.06111C17.1145 8.79468 17.5151 8.53609 17.8843 8.25399C18.2456 7.97972 18.5362 7.63493 18.7483 7.23529C19.3767 6.01285 18.7954 4.71206 17.3737 4.53182ZM14.8524 6.86699C15.2765 6.66325 15.6928 6.44384 16.172 6.42817C16.2898 6.42033 16.4155 6.45168 16.5333 6.48302C16.6432 6.51437 16.7139 6.6946 16.6511 6.78863C16.5726 6.91401 16.4862 7.03155 16.384 7.13342C15.9049 7.57224 15.2137 7.92487 14.4047 8.15212C14.4282 7.74464 14.5618 7.37634 14.7032 7.02371C14.7267 6.96103 14.7974 6.89834 14.8524 6.86699ZM2.38707 2.20449C2.58344 2.01643 2.81908 1.87538 3.05471 1.73433C3.61239 1.39737 4.24077 1.23281 4.86914 1.06825C6.07875 0.754809 7.30408 0.598086 8.40373 0.660775C9.62905 0.684283 10.6894 0.809662 11.7341 1.03691C12.3939 1.17796 13.0223 1.42088 13.5642 1.82836C13.8863 2.07128 14.1612 2.35338 14.3418 2.71384C14.6168 3.25454 14.5539 3.63067 14.1219 4.04598C13.7763 4.3751 13.36 4.60235 12.9201 4.77475C11.1293 5.46432 9.28345 5.73859 7.35906 5.44865C6.29868 5.29193 5.24616 5.12737 4.24862 4.73556C3.80876 4.56317 3.38461 4.35943 2.96046 4.15569C2.78766 4.06949 2.63056 3.94411 2.46562 3.82657C1.96292 3.50529 1.86866 2.70601 2.38707 2.20449ZM1.81368 4.34376C3.76163 5.6759 5.9138 6.08338 8.13667 6.21659C10.3752 6.35764 12.4567 5.78561 14.5461 4.64153C14.4361 5.2214 14.3733 5.66023 14.2711 6.09121C13.9884 7.37634 13.5956 8.62229 12.9359 9.7742C12.6688 10.2365 12.331 10.6205 11.9697 10.9966C11.7184 11.2552 11.3885 11.3728 11.035 11.4276C10.5245 11.5138 10.0061 11.5922 9.48767 11.647C8.49798 11.7489 7.5083 11.8038 6.51861 11.6705C5.93737 11.5922 5.43467 11.3884 4.97125 11.0123C4.42142 10.5656 3.96585 10.0563 3.57312 9.47642C2.53631 7.95622 1.95506 6.27145 1.81368 4.34376ZM16.8946 11.7802C16.7375 12.2661 16.4547 12.6579 16.0542 12.9792C15.2451 13.6296 14.3261 14.0371 13.3286 14.2956C12.0012 14.6483 10.6423 14.7658 9.27559 14.7893C7.53186 14.8207 5.80384 14.6639 4.09938 14.2878C3.27464 14.0997 2.48133 13.8255 1.77441 13.324C1.3424 13.0184 0.988943 12.6501 0.753304 12.1642C0.446972 11.5138 0.517664 10.981 1.00465 10.4559C1.46808 9.95443 2.02576 9.6018 2.71696 9.38239C2.81907 9.51561 2.92904 9.64098 3.0233 9.78203C3.49457 10.4873 4.07582 11.0985 4.7199 11.647C5.11263 11.9762 5.54464 12.2034 6.05519 12.2504C6.64429 12.3053 7.24124 12.3915 7.83034 12.3758C8.77289 12.3523 9.71545 12.2661 10.6502 12.1799C10.9879 12.1485 11.3257 12.0388 11.6555 11.937C12.064 11.8038 12.3939 11.5452 12.6452 11.1847C12.8573 10.8791 13.0851 10.5892 13.2658 10.3541C13.9962 10.119 14.5932 9.94659 15.1666 9.71934C15.4808 9.59397 15.74 9.62531 16.007 9.79771C16.1327 9.87607 16.2584 9.95443 16.3762 10.0485C16.9417 10.503 17.1145 11.0985 16.8946 11.7802ZM17.9707 7.15693C17.7036 7.55657 17.3423 7.85435 16.981 8.15212C16.2898 8.72416 14.8131 9.46859 13.8313 9.57046C13.8784 9.05327 13.9334 8.9514 14.3418 8.82603C14.9152 8.64579 15.4651 8.42638 15.9756 8.11294C16.3291 7.89353 16.6747 7.64277 16.981 7.35283C17.2481 7.10991 17.3894 6.76512 17.2009 6.40466C17.0124 6.03636 16.6668 5.87964 16.2662 5.91882C15.9206 5.95016 15.5829 6.05203 15.2451 6.12256C15.1509 6.14607 15.0566 6.16958 14.8288 6.2401C14.9074 6.01285 14.9152 5.87964 14.9859 5.80128C15.575 5.13521 16.9731 4.93147 17.7508 5.38596C18.0021 5.52701 18.1592 5.73859 18.2142 6.02853C18.3006 6.43601 18.1985 6.81214 17.9707 7.15693Z" fill="black"/>
<path d="M14.5461 4.63393C14.4361 5.2138 14.3733 5.65263 14.2712 6.08362C13.9884 7.36874 13.5957 8.61469 12.9359 9.7666C12.6688 10.2289 12.3311 10.6129 11.9697 10.989C11.7184 11.2476 11.3885 11.3652 11.035 11.42C10.5245 11.5062 10.0061 11.5846 9.48768 11.6394C8.49799 11.7413 7.50831 11.7962 6.51862 11.6629C5.93738 11.5846 5.43468 11.3808 4.97126 11.0047C4.42143 10.558 3.96586 10.0487 3.57313 9.46882C2.53632 7.95645 1.95507 6.27168 1.81369 4.34399C3.76164 5.67614 5.91381 6.08362 8.13668 6.21683C10.3674 6.35788 12.4489 5.78584 14.5461 4.63393Z" fill="white"/>
<path d="M8.45084 1.14677C9.69973 1.12326 11.0193 1.30349 12.1347 1.89904C12.3467 2.00875 12.551 2.14196 12.7081 2.32219C13.4621 3.19984 12.5824 4.05398 11.7655 4.38309C10.4695 4.89244 8.90641 5.02566 7.51614 4.96297C6.7778 4.93162 6.03161 4.81408 5.33255 4.57116C4.7356 4.36742 3.83231 4.06965 3.71449 3.34089C3.67522 3.09013 3.77733 2.83938 3.92657 2.63564C4.36643 2.03225 5.20688 1.74232 5.89808 1.53858C6.72282 1.27999 7.58683 1.16244 8.45084 1.14677Z" fill="black"/>
<g clip-path="url(#clip0_1158_3738)">
<path d="M9.33629 7.47576C9.24384 7.34312 9.12057 7.28701 8.96135 7.29721C8.85862 7.30741 8.76617 7.34822 8.68913 7.41454C8.60695 7.48596 8.5299 7.57268 8.47854 7.66961C8.44773 7.72572 8.41691 7.78694 8.38609 7.84815C8.37068 7.87876 8.32446 7.87876 8.30905 7.84815C8.26796 7.78183 8.232 7.71552 8.19092 7.6441C8.12928 7.53697 8.0471 7.44515 7.95465 7.36353C7.82111 7.2666 7.67216 7.22069 7.5078 7.24109C7.41535 7.2513 7.33831 7.29211 7.28181 7.36353C7.21504 7.44515 7.16881 7.53697 7.16368 7.639C7.15854 7.74102 7.1534 7.84305 7.16881 7.93998C7.20476 8.20524 7.27154 8.46541 7.37426 8.71538C7.53348 9.08267 7.70298 9.44997 7.89815 9.80196C7.95979 9.90908 8.03169 10.006 8.11387 10.0978C8.27823 10.2815 8.44773 10.2917 8.64804 10.1386C8.67372 10.1182 8.6994 10.0978 8.72508 10.0723C8.84321 9.9499 8.95107 9.82236 9.03325 9.67442C9.22843 9.33264 9.36197 8.96534 9.44415 8.58274C9.4801 8.4195 9.49037 8.25116 9.50065 8.16953C9.49551 7.86346 9.46469 7.6543 9.33629 7.47576ZM9.16679 8.25626C9.06921 8.8021 8.85862 9.30203 8.54018 9.75605C8.51963 9.78155 8.49395 9.80706 8.47341 9.82746C8.458 9.84787 8.39636 9.84787 8.38095 9.83257C8.36555 9.81726 8.345 9.80196 8.33473 9.78665C8.01628 9.31223 7.72866 8.8225 7.55403 8.27156C7.5078 8.13383 7.47698 7.99099 7.4513 7.84815C7.43589 7.77163 7.44103 7.69511 7.4513 7.61859C7.46157 7.52677 7.56943 7.47065 7.65675 7.50636C7.69784 7.52167 7.73893 7.54717 7.76975 7.57268C7.85706 7.6441 7.92383 7.73082 7.98033 7.83285C8.05737 7.98079 8.13442 8.12872 8.17551 8.29197C8.18578 8.32257 8.19605 8.35828 8.20632 8.38889C8.22173 8.4399 8.26796 8.47561 8.29878 8.46541C8.32959 8.45521 8.36041 8.4348 8.37582 8.4144C8.4015 8.37869 8.42204 8.33788 8.44259 8.29707C8.50422 8.18994 8.56586 8.08281 8.62749 7.98079C8.70454 7.85835 8.79185 7.74102 8.90485 7.6492C8.99216 7.57268 9.06407 7.60329 9.1257 7.70021C9.14625 7.73592 9.16166 7.78183 9.17193 7.82264C9.1822 7.88896 9.1822 7.95528 9.18734 8.0216C9.1822 8.10322 9.17707 8.17974 9.16679 8.25626Z" fill="black"/>
<path d="M9.18734 8.02146C9.17707 8.10309 9.17707 8.17961 9.16166 8.25613C9.06408 8.80197 8.85349 9.3019 8.53505 9.75591C8.5145 9.78142 8.48882 9.80693 8.46828 9.82733C8.45287 9.84774 8.39123 9.84774 8.37582 9.83243C8.36042 9.81713 8.33987 9.80183 8.3296 9.78652C8.01115 9.3121 7.72353 8.82237 7.5489 8.27143C7.50267 8.13369 7.47185 7.99086 7.44617 7.84802C7.43076 7.7715 7.4359 7.69498 7.44617 7.61846C7.45644 7.52664 7.5643 7.47052 7.65162 7.50623C7.69271 7.52153 7.7338 7.54704 7.76462 7.57255C7.85193 7.64397 7.9187 7.73069 7.9752 7.83272C8.05224 7.98065 8.12929 8.12859 8.17038 8.29183C8.18065 8.32244 8.19092 8.35815 8.20119 8.38876C8.2166 8.43977 8.26283 8.47548 8.29365 8.46528C8.32446 8.45508 8.35528 8.43467 8.37069 8.41427C8.39637 8.37856 8.41691 8.33775 8.43746 8.29694C8.49909 8.18981 8.56073 8.08268 8.62236 7.98065C8.6994 7.85822 8.78672 7.74089 8.89972 7.64907C8.98703 7.57255 9.05894 7.60316 9.12057 7.70008C9.14112 7.73579 9.15653 7.7817 9.1668 7.82251C9.18221 7.88883 9.18221 7.96025 9.18734 8.02146Z" fill="black"/>
</g>
<defs>
<clipPath id="clip0_1158_3738">
<rect width="2.33697" height="3.00468" fill="white" transform="translate(7.15854 7.23584)"/>
</clipPath>
</defs>
</svg>
