<svg width="85" height="76" viewBox="0 0 67 64" fill="none" xmlns="http://www.w3.org/2000/svg">
<path d="M67 25.9501C67 45.4936 50.7668 64 31.4609 64C12.1549 64 0 56.6993 0 37.1559C0 17.6124 12.1549 0 31.4609 0C50.7668 0 67 6.40668 67 25.9501Z" fill="black"/>
<path d="M21.7498 45.5358C25.3768 38.9725 30.4014 32.905 34.9748 27.0244C37.104 24.2868 39.8234 18.9019 42.9428 17.3066" stroke="white" stroke-width="3" stroke-linecap="round"/>
<path d="M19.2261 19.7905C21.6344 21.7374 23.9619 23.3099 25.4876 24.6576C29.0966 27.8455 32.3206 30.2271 35.9275 32.7491C38.9986 34.8966 42.1319 37.3885 44.905 39.9068C45.7995 40.719 45.7173 40.719 48.3565 43.0978" stroke="white" stroke-width="3" stroke-linecap="round"/>
</svg>
