<svg width="60" height="80" viewBox="0 0 60 80" fill="none" xmlns="http://www.w3.org/2000/svg">
<g filter="url(#filter0_d_996_1665)">
<path d="M14.8696 62.3557L13.2443 53.9033L21.4838 47.3536L26.9318 51.66L29.4253 49.583L37.0321 48.7248L41.4262 56.0835L37.7168 63.8604L32.5287 68.7603L29.9347 70.4897L27.3406 71.0935L24.1701 71.0935L20.1349 69.0485L17.2527 66.1662L14.8696 62.3557Z" fill="white" stroke="white"/>
<path d="M51.3926 36.5316C50.7675 38.1731 49.8592 40.5969 48.6651 42.2168C48.2529 42.754 47.8064 43.2405 47.3502 43.549C47.0461 43.7547 46.5981 44.0207 46.2074 43.9894C45.7317 43.9417 45.6093 43.4335 45.6062 42.9924C45.6031 42.5513 45.5919 42.1526 45.5888 41.7115C45.6855 37.325 47.2435 29.476 42.2096 27.0073C38.7088 25.2748 33.8409 24.6883 29.9586 24.2478C26.892 23.9207 23.6846 24.0949 20.6405 24.565C17.7747 25.0255 15.0082 26.342 13.8479 29.1578C12.2458 33.1218 11.9986 37.8317 11.2808 42.0103C11.1989 42.435 11.1169 42.8597 10.95 43.268C10.7749 43.7188 10.5476 43.9833 10.3187 44.0273C10.0391 44.1055 9.66482 43.9893 9.30536 43.5675C8.86091 43.1294 8.51783 42.6227 8.19114 42.0311C6.78966 39.4701 6.43321 35.8331 6.05836 33.2058C5.09665 26.765 5.12574 19.9867 7.33201 13.8045C8.49735 10.5051 10.8993 9.25042 14.0683 10.8748C14.1451 10.9337 14.2808 10.9158 14.4933 10.9568C16.0416 6.58599 20.6228 5.00272 23.5625 7.81635C25.8625 4.11913 31.0479 3.97395 32.7136 7.90746C33.945 6.77938 35.4084 6.04846 37.0874 5.79962C39.9532 5.33921 41.7423 7.4904 42.5406 9.97911C46.3425 7.40854 48.9313 8.61271 49.6488 12.8919C50.9027 12.5611 52.1598 12.6714 53.3856 13.1722C57.3703 14.9099 54.9768 27.091 51.3926 36.5316Z" fill="black"/>
<path d="M9.98048 44.1825C9.72549 44.1333 9.45256 43.9485 9.15353 43.6706C8.75157 43.2406 8.36601 42.7257 8.04751 42.0916C6.80937 39.8264 6.38894 36.7498 6.03201 34.2582C5.97005 33.8938 5.95058 33.5376 5.88042 33.2157C4.75894 25.775 5.22274 19.2567 7.17044 13.7294C7.82019 11.9605 8.80482 10.7408 10.0916 10.2401C11.2851 9.76551 12.6615 9.94288 14.1438 10.7134C14.1863 10.7216 14.2288 10.7298 14.3563 10.7544L14.3988 10.7625C15.2319 8.50039 16.9523 6.89396 18.9861 6.40521C20.6046 6.01257 22.2882 6.42539 23.5694 7.55353C24.8044 5.72131 26.8172 4.65584 28.8556 4.82876C30.5883 4.98676 32.0297 5.9696 32.8137 7.61857C34.0369 6.53296 35.4839 5.88697 37.0779 5.62175C39.5792 5.22317 41.6268 6.71941 42.6407 9.69021C44.4574 8.49881 46.0678 8.14865 47.3279 8.70006C48.5455 9.24328 49.3868 10.5949 49.7832 12.6537C51.029 12.3654 52.286 12.4757 53.4693 12.9682C57.9558 14.8468 54.8311 28.0763 51.6643 36.496L51.5025 36.4208L51.6643 36.496C51.0391 38.1375 50.1308 40.5614 48.9285 42.2237C48.4575 42.8377 48.0192 43.2817 47.563 43.5902C47.1574 43.8644 46.7176 44.0879 46.3269 44.0566C45.9787 44.0335 45.5865 43.7817 45.5804 42.8994C45.5773 42.4583 45.5742 42.0172 45.5629 41.6186C45.5665 40.9144 45.6371 40.0911 45.716 39.2253C46.017 34.9222 46.3922 29.0917 42.2867 27.0664C38.9051 25.4009 34.2154 24.8047 30.0781 24.3151C27.2747 23.9946 24.033 24.1183 20.8108 24.598C18.4452 24.9787 15.3714 26.0598 14.1702 29.088C13.0018 31.9462 12.5574 35.1644 12.1294 38.2976C11.9425 39.495 11.79 40.743 11.5606 41.9323C11.4705 42.3994 11.3461 42.816 11.2298 43.19C11.0465 43.6833 10.7685 43.9821 10.4889 44.0603C10.2437 44.1892 10.108 44.2071 9.98048 44.1825ZM12.2575 10.4376C11.4925 10.2901 10.8222 10.337 10.1535 10.6045C8.95998 11.0791 8.04242 12.1796 7.45156 13.8718C5.52024 19.3141 5.09894 25.8405 6.19431 33.1882C6.26446 33.5101 6.28392 33.8662 6.34588 34.2306C6.711 36.6798 7.13963 39.7139 8.30097 41.9203C8.62766 42.5119 8.97072 43.0186 9.38087 43.406C9.6031 43.6251 9.94463 43.9112 10.2242 43.833C10.4106 43.7809 10.5872 43.5506 10.7541 43.1423C10.9129 42.7765 10.9948 42.3517 11.0767 41.927C11.3061 40.7378 11.4505 39.5322 11.6373 38.3348C12.0654 35.2016 12.5179 31.941 13.6946 29.0403C14.971 25.8505 18.1379 24.7433 20.5967 24.3365C23.8697 23.8224 27.1114 23.6988 29.9573 24.0275C34.1452 24.4828 38.8693 25.1297 42.2933 26.8033C46.6032 28.9121 46.1952 34.9125 45.8778 39.3005C45.7989 40.1663 45.779 40.9554 45.7329 41.6514C45.7442 42.05 45.7048 42.4829 45.7503 42.9322C45.7795 43.4665 45.9429 43.7623 46.2061 43.769C46.5543 43.7921 47.0023 43.5261 47.2132 43.3465C47.6613 43.0805 48.0571 42.6283 48.5199 42.0568C49.714 40.4369 50.6223 38.0131 51.2393 36.4141L51.2475 36.3716C55.0313 26.3528 57.0306 14.8445 53.2338 13.2752C52.0505 12.7827 50.8359 12.6806 49.582 13.0114L49.3956 13.0635L49.3858 12.8854C49.032 10.8349 48.2757 9.49959 47.0924 9.00704C45.909 8.51449 44.3412 8.87286 42.5245 10.0643L42.3217 10.2014L42.2777 9.97261C41.8435 8.5673 40.4292 5.38711 37.0205 5.91905C35.4266 6.18427 33.9714 6.87273 32.7399 8.00081L32.5797 8.14611L32.4931 7.90916C31.7942 6.27659 30.446 5.26767 28.7557 5.11786C26.7598 4.95314 24.8402 5.99254 23.6477 7.83296L23.5299 7.98644L23.3845 7.82624C22.1541 6.66383 20.6062 6.23312 18.9876 6.62576C17.0045 7.08024 15.3691 8.70307 14.5867 10.931L14.5197 11.0502L14.3922 11.0256C14.3072 11.0092 14.2647 11.001 14.2222 10.9928C14.0947 10.9682 14.0097 10.9518 13.9329 10.8929C13.3886 10.7439 12.81 10.5442 12.2575 10.4376Z" fill="white"/>
<path d="M45.9896 48.0884C45.9896 48.0884 42.8863 57.0931 37.7553 63.8124C38.235 62.0108 38.4664 59.8969 38.1648 58.0326C37.8094 55.7614 36.5989 53.81 34.7392 52.4821C33.4253 51.5239 31.3382 50.4605 29.7166 50.4121C29.3177 50.4232 28.7929 50.6304 28.796 51.0715C28.7893 51.3345 28.969 51.5454 29.1994 51.722C29.3874 51.8904 29.6767 51.9902 29.881 52.0737C32.0008 52.9671 33.9241 54.8799 33.8135 57.2814C33.7209 59.8185 31.5591 61.4279 29.3322 62.2318C27.4357 62.9233 25.3235 63.1326 23.3588 62.5775C20.8155 61.8226 18.5589 59.5812 18.6582 56.7811C18.734 55.4741 19.3115 54.308 20.3074 53.487C21.1006 52.803 22.075 52.5504 23.0233 52.2047C23.5906 52.0057 24.7908 51.2681 24.0048 50.5438C24.0048 50.5438 20.4405 48.2264 17.5946 51.5541C14.6981 54.916 14.371 59.1259 15.221 62.9461C10.5404 56.3607 7.82542 48.0399 7.82542 48.0399C7.82542 48.0399 2.59746 44.5206 5.49043 41.8628C6.29176 41.1363 7.29536 41.418 8.15661 41.9806C8.4833 42.5722 8.82638 43.0789 9.27084 43.517C9.68098 43.9045 10.0046 44.055 10.2842 43.9768C10.5212 43.8904 10.7486 43.6259 10.9155 43.2175C11.0824 42.8092 11.1643 42.3845 11.2462 41.9598C11.9722 37.7387 12.2113 33.0713 13.8134 29.1073C14.9736 26.2915 17.6976 24.9668 20.606 24.5146C23.6501 24.0445 26.8575 23.8702 29.9241 24.1973C33.8063 24.6378 38.6743 25.2243 42.1751 26.9568C47.209 29.4255 45.651 37.2745 45.5543 41.661C45.5573 42.1021 45.5179 42.535 45.5717 42.9419C45.5748 43.383 45.6972 43.8912 46.1728 43.9389C46.521 43.962 46.9691 43.696 47.3157 43.4985C47.7719 43.19 48.2609 42.7117 48.6306 42.1663C49.4268 41.9234 50.2343 42.0791 50.7848 43.1104C52.1617 45.7988 45.9896 48.0884 45.9896 48.0884Z" fill="white"/>
<path d="M15.1983 63.2941C15.1133 63.2777 15.0365 63.2188 14.9597 63.16C10.596 56.988 7.89386 49.2864 7.5559 48.2962C7.01006 47.9266 4.46726 46.0265 4.29979 43.9238C4.24294 43.0758 4.56859 42.3016 5.26853 41.6437C5.80821 41.1311 6.80719 40.7511 8.33359 41.7503C8.37609 41.7585 8.41039 41.8092 8.4447 41.8599C8.77139 42.4515 9.12265 42.9157 9.4903 43.295C9.63572 43.4552 9.97726 43.7413 10.1718 43.6467C10.3157 43.5864 10.4842 43.3986 10.5922 43.067C10.7509 42.7012 10.8247 42.3189 10.9066 41.8942C11.1278 40.7475 11.2803 39.4994 11.4672 38.302C11.9034 35.1263 12.356 31.8657 13.5326 28.965C14.8598 25.7409 18.0856 24.557 20.5869 24.1584C23.8598 23.6443 27.1015 23.5207 29.9899 23.8576C34.1779 24.3129 38.9019 24.9598 42.3685 26.6416C46.7976 28.8175 46.3814 34.8603 46.0559 39.2908C45.977 40.1566 45.957 40.9457 45.911 41.6417C45.914 42.0828 45.8828 42.4732 45.9284 42.9225C45.9561 43.2362 46.018 43.6006 46.2387 43.5991C46.5019 43.6058 46.9499 43.3398 47.1527 43.2027C47.5582 42.9285 47.9883 42.5269 48.4087 41.9472C48.4676 41.8705 48.5183 41.8362 48.6115 41.8101C49.7297 41.4972 50.6238 41.8899 51.1317 42.9129C51.4241 43.4539 51.4451 44.0306 51.2029 44.6006C50.4779 46.5312 47.0673 47.9878 46.3054 48.2814C45.8553 49.4721 42.8062 57.7384 38.0792 63.963C37.9696 64.074 37.8258 64.1343 37.664 64.0591C37.5021 63.9838 37.4417 63.84 37.4745 63.6701C37.987 61.6986 38.117 59.6532 37.8594 58.0177C37.522 55.8822 36.3458 53.9813 34.5711 52.6699C33.334 51.7705 31.2894 50.7154 29.7103 50.6751C29.5321 50.6848 29.3032 50.7287 29.1936 50.8398C29.1429 50.874 29.1347 50.9165 29.1183 51.0014C29.1363 51.1371 29.1967 51.2809 29.3503 51.3986C29.5039 51.5163 29.7082 51.5998 29.9125 51.6832L29.9975 51.6996C31.9981 52.526 34.2695 54.4619 34.1277 57.2538C34.0335 59.5704 32.2983 61.4823 29.4109 62.5113C27.8953 63.0559 25.5983 63.538 23.2168 62.8584C20.6735 62.1035 18.1276 59.7623 18.276 56.7073C18.36 55.3579 18.954 54.1069 20.0169 53.1666C20.7594 52.5168 21.657 52.2054 22.5464 51.9364C22.6396 51.9103 22.7834 51.85 22.8766 51.8239C23.2576 51.6771 23.807 51.3426 23.8725 51.0028C23.8807 50.9603 23.8971 50.8754 23.7517 50.7152C23.3938 50.514 18.9086 51.0586 17.7911 51.68C16.6735 52.3014 14.8255 59.7421 15.5173 62.7829C15.5352 62.9185 15.4599 63.0802 15.3161 63.1406C15.334 63.2762 15.2833 63.3105 15.1983 63.2941ZM7.11336 42.0749C6.46768 41.9944 6.14716 42.285 6.03758 42.396C5.49791 42.9086 5.21322 43.4704 5.26853 44.0978C5.54347 45.7014 8.15386 47.0941 8.18817 47.1448C8.26498 47.2036 8.29928 47.2543 8.33359 47.305C8.35971 47.3981 10.8478 54.7358 14.8976 60.9353C14.5115 57.9093 14.0067 53.618 17.3809 51.2925C19.6174 49.7512 24.2489 50.1944 24.2489 50.1944C24.2489 50.1944 24.2914 50.2026 24.2832 50.245C24.659 50.5818 24.6785 50.938 24.5868 51.1846C24.4476 51.9067 23.4829 52.3373 23.1444 52.4923C23.0512 52.5184 22.9074 52.5787 22.8142 52.6048C21.9673 52.882 21.1711 53.1248 20.53 53.706C19.6273 54.501 19.0579 55.6247 19.0149 56.7617C18.8895 59.4687 21.1282 61.5745 23.4672 62.2459C25.6787 62.8927 27.7975 62.4203 29.2117 61.9442C30.4396 61.5203 33.3418 60.1859 33.4575 57.3008C33.5762 54.8568 31.527 53.14 29.7308 52.3971L29.6458 52.3807C29.399 52.289 29.1522 52.1974 28.9642 52.029C28.657 51.7935 28.4594 51.447 28.4317 51.1333C28.4384 50.8703 28.5218 50.6661 28.6903 50.4784C28.9683 50.1796 29.3836 50.0835 29.6893 50.0984C31.4466 50.129 33.5337 51.1923 34.9244 52.2094C36.8609 53.5961 38.0975 55.6407 38.479 58.005C38.6746 59.2762 38.3316 60.7087 38.0792 62.2459C42.5758 55.8447 45.3305 47.9621 45.3468 47.8772C45.3632 47.7922 45.4646 47.7237 45.566 47.6551C45.6167 47.6209 49.1069 46.2359 50.176 44.6006C50.3429 44.1923 50.3234 43.8361 50.134 43.4472C49.7894 42.7199 49.3913 42.6036 48.6115 42.7615C48.1911 43.3412 48.0736 43.561 47.6174 43.8695C47.1694 44.1355 46.6003 44.4046 46.1671 44.3651C45.8614 44.3502 45.2822 43.9873 45.2663 42.927C45.2633 42.4859 45.2602 42.0447 45.2571 41.6036C45.2607 40.8995 45.3313 40.0761 45.4102 39.2103C45.7014 34.7292 46.1125 29.1699 42.0838 27.2034C38.7447 25.5462 34.055 24.95 29.9095 24.5028C27.1061 24.1824 23.9069 24.3142 20.6847 24.794C18.3698 25.1404 15.3385 26.2297 14.1537 29.1729C12.9935 31.9886 12.5491 35.2068 12.1211 38.34C11.9342 39.5374 11.7816 40.7855 11.5523 41.9747C11.4621 42.4419 11.3295 42.9009 11.2133 43.2749C11.0218 43.8106 10.7356 44.1519 10.3628 44.2562C9.93937 44.3948 9.48827 44.2197 9.00951 43.7309C8.60755 43.3009 8.51227 43.0495 8.18558 42.4579C7.78516 42.2485 7.41086 42.1323 7.11336 42.0749Z" fill="black"/>
<path d="M26.8517 49.7281C25.0078 49.4606 24.6672 46.884 23.81 40.8157C23.7562 40.4089 23.7025 40.002 23.6144 39.5445C23.132 36.1036 21.8252 33.737 19.7709 32.5038C16.7622 30.7341 13.1554 32.0648 13.1047 32.0991C12.9183 32.1512 12.7565 32.076 12.6618 31.8815C12.6096 31.6952 12.8663 31.1607 13.0609 31.0661C13.2048 31.0057 17.0486 29.5886 20.3303 31.5431C22.5464 32.8516 23.9561 35.3701 24.4743 39.0823C24.5199 39.5316 24.6162 39.9467 24.67 40.3535C25.6071 46.9217 26.1957 48.4407 27.2224 48.3744C28.249 48.3081 28.5581 48.1371 29.3297 44.3653C29.6082 42.9213 29.9604 41.095 30.5124 38.6905C30.5451 38.5206 31.6003 34.8182 35.0094 33.141C37.5389 31.9109 40.2733 31.8931 44.0291 33.6748C44.1909 33.75 44.8426 34.1446 44.5636 34.7438C44.4884 34.9055 44.1926 35.0117 44.0308 34.9364C40.4711 33.2807 37.4813 33.0124 35.1889 34.1561C32.0757 35.6701 31.4759 38.9776 31.4677 39.0201C30.9158 41.4246 30.5717 43.2084 30.2932 44.6524C29.5723 48.3899 29.0749 49.6283 27.5055 49.7661C27.1998 49.7512 27.0217 49.7609 26.8517 49.7281Z" fill="black"/>
<path d="M25.9003 58.0894C25.5603 58.0238 25.2628 57.9664 24.9228 57.9008C23.2899 57.4537 22.2064 56.6721 22.1721 56.6214C22.0185 56.5037 21.9959 56.0109 22.1137 55.8574C22.2314 55.7039 22.4946 55.74 22.6482 55.8577C22.6825 55.9084 26.8449 58.7816 30.511 56.229C30.6631 56.1261 30.8299 56.2402 30.9328 56.3922C31.088 56.6214 30.9341 56.9018 30.782 57.0046C29.4051 57.9725 27.7016 58.3487 25.9003 58.0894Z" fill="black"/>
<path d="M46.0898 44.1439C46.0048 44.1275 45.9623 44.1193 45.8855 44.0605C45.7319 43.9427 45.7729 43.7304 45.8906 43.5769C45.9413 43.5426 47.248 42.2528 48.5951 41.8959C48.7815 41.8438 48.9776 41.9697 48.9956 42.1053C49.0478 42.2916 48.93 42.4451 48.7861 42.5054C47.6172 42.8527 46.4201 44.0314 46.3776 44.0232C46.268 44.1342 46.1748 44.1603 46.0898 44.1439Z" fill="black"/>
<path d="M15.4047 63.6048C15.3783 63.222 15.3409 63.0259 15.3409 63.0259L15.7144 62.9092C15.7144 62.9092 15.746 63.1356 15.7725 63.5183L15.4047 63.6048Z" fill="black"/>
<path d="M20.0211 42.0837C19.9794 42.0724 19.9376 42.061 19.9071 42.008L14.8616 37.4591C14.7589 37.3417 14.7092 37.1938 14.7849 37.0799C14.8607 36.9659 15.0199 36.8746 15.1452 36.9086C15.6579 37.0027 20.2907 37.9442 20.9853 40.0146C21.2143 40.6592 21.022 41.369 20.4006 42.0072C20.3362 42.0794 20.2413 42.0985 20.1465 42.1176C20.0629 42.095 20.0629 42.095 20.0211 42.0837ZM16.2819 37.844L20.1107 41.2565C20.3909 40.8843 20.451 40.4972 20.3517 40.2015C19.9322 39.1019 17.8277 38.2628 16.2819 37.844Z" fill="black"/>
<path d="M17.952 39.9546C18.1505 40.5462 18.7432 40.8412 19.335 40.643C19.9268 40.4449 20.2218 39.8526 20.0234 39.2611C19.8249 38.6695 19.2322 38.3745 18.6404 38.5727C18.0486 38.7708 17.7536 39.3631 17.952 39.9546Z" fill="black"/>
<path d="M34.4115 43.4357C34.4546 43.4321 34.4978 43.4285 34.5373 43.3818L40.3191 39.8153C40.4413 39.7182 40.5167 39.5817 40.4627 39.456C40.4087 39.3303 40.2685 39.2118 40.1391 39.2227C39.6179 39.223 34.8913 39.3154 33.8354 41.2269C33.4942 41.8198 33.5556 42.5526 34.052 43.2923C34.1023 43.3749 34.1922 43.4107 34.2821 43.4466C34.3684 43.4394 34.3684 43.4394 34.4115 43.4357ZM38.8526 39.9382L34.4722 42.6059C34.2636 42.1894 34.2742 41.7978 34.425 41.5248C35.0356 40.5186 37.2568 40.072 38.8526 39.9382Z" fill="black"/>
<path d="M36.8297 41.7143C36.528 42.2605 35.8918 42.444 35.3454 42.1426C34.7989 41.8412 34.6153 41.2055 34.917 40.6593C35.2187 40.1131 35.8548 39.9296 36.4013 40.231C36.9478 40.5325 37.1314 41.1682 36.8297 41.7143Z" fill="black"/>
<path d="M20.9177 56.3135L24.0758 53.2019L25.578 50.2361L24.8974 48.9422L18.6198 47.7313L14.2815 48.5224L14.096 59.332L14.6306 60.401L15.5848 62.2611L15.7657 62.5285L16.8867 62.7447L18.4561 63.0474L25.8434 69.3556L36.1166 65.5236C36.1166 65.5236 37.3477 63.6082 38.1495 62.2719C38.9513 60.9356 39.648 58.0658 39.648 58.0658L40.1669 55.3754L34.4355 48.9216L29.7786 48.9535L27.6037 51.7896L30.5775 54.456L32.0412 58.924L22.2788 58.9014L20.9177 56.3135Z" fill="white"/>
<path d="M14.8971 60.6679L14.6299 60.1334L25.8992 64.2497C25.8992 64.2497 16.7262 64.1085 16.3881 63.2838C16.05 62.4591 16.0999 62.4191 16.0999 62.4191L15.8116 62.4191L16.0999 63.2838L14.8971 60.6679Z" stroke="white"/>
<path d="M18.9818 67.8951C16.3878 65.5893 14.733 62.5997 14.733 62.5997C14.733 62.5997 14.0345 60.0476 15.1983 61.6771C16.3621 63.3066 17.7588 65.4012 19.5045 66.9144C21.2502 68.4275 23.7187 70.173 25.685 70.2895C27.6513 70.406 30.0954 69.7077 32.4231 67.6127C34.7508 65.5176 36.1368 64.712 37.5439 62.9573C40.02 59.332 38.126 63.8801 38.126 63.8801C38.126 63.8801 36.0111 66.2803 32.8189 68.7599C29.6266 71.2395 26.9102 71.6405 25.6852 71.6413C24.4602 71.6422 21.5759 70.201 18.9818 67.8951Z" fill="black"/>
</g>
<defs>
<filter id="filter0_d_996_1665" x="0.293457" y="4.81049" width="59.4153" height="74.8309" filterUnits="userSpaceOnUse" color-interpolation-filters="sRGB">
<feFlood flood-opacity="0" result="BackgroundImageFix"/>
<feColorMatrix in="SourceAlpha" type="matrix" values="0 0 0 0 0 0 0 0 0 0 0 0 0 0 0 0 0 0 127 0" result="hardAlpha"/>
<feOffset dy="4"/>
<feGaussianBlur stdDeviation="2"/>
<feComposite in2="hardAlpha" operator="out"/>
<feColorMatrix type="matrix" values="0 0 0 0 0 0 0 0 0 0 0 0 0 0 0 0 0 0 0.25 0"/>
<feBlend mode="normal" in2="BackgroundImageFix" result="effect1_dropShadow_996_1665"/>
<feBlend mode="normal" in="SourceGraphic" in2="effect1_dropShadow_996_1665" result="shape"/>
</filter>
</defs>
</svg>
