<svg width="54" height="75" viewBox="0 0 54 75" fill="none" xmlns="http://www.w3.org/2000/svg">
<ellipse rx="15.6817" ry="6.77006" transform="matrix(0.996763 -0.080393 0.0689554 0.99762 19.2587 38.3922)" fill="white"/>
<path d="M0.809814 50.6958L2.37726 40.5367L10.2145 43.9231H22.7541L29.8076 42.2299L34.51 37.9969L36.0774 42.2299L37.6449 57.4685L36.8611 66.781L35.2937 71.014L16.4843 73.5537L5.51216 71.8605L3.94471 69.3208L1.59354 60.8549L0.809814 50.6958Z" fill="white"/>
<path d="M42.3471 43.9232L37.6448 46.463V50.6959L40.7797 49.8493L44.6983 49.0027L45.482 51.5425L42.3471 56.622L37.6448 60.0084V65.0879L41.5634 63.3948L47.0495 59.1618L51.7518 51.5425L52.5355 47.3095L50.1844 43.9232L45.482 43.0766L42.3471 43.9232Z" fill="white"/>
<path d="M37.6889 44.9851C37.9481 45.0967 38.1555 45.0688 38.3629 44.9015C39.3738 44.0093 40.5143 43.3401 41.7585 42.8383C42.562 42.5316 43.3656 42.197 44.1691 42.0018C45.2319 41.7509 46.3206 41.723 47.3833 42.0018C48.2646 42.2249 49.1459 42.5316 49.9754 42.8661C50.4938 43.0892 51.0122 43.3959 51.4529 43.7584C52.5934 44.7063 53.2414 45.9331 53.3192 47.4945C53.4229 49.4183 53.1896 51.2585 52.2824 52.9872C51.4011 54.6322 50.4938 56.2215 49.2237 57.5877C46.0354 61.045 42.5102 63.9447 38.4406 66.0916C38.3369 66.1474 38.2592 66.231 38.0777 66.3704C37.8185 67.0117 37.6371 67.7645 37.5075 68.5452C37.4297 69.0471 37.5852 69.5211 37.6112 69.9951C37.6371 70.3018 37.5075 70.5806 37.326 70.8315C36.9891 71.2776 36.5484 71.5286 36.0559 71.7237C34.8895 72.2256 33.6971 72.6438 32.4788 72.9226C29.809 73.536 27.1132 73.9543 24.3915 74.1216C24.1064 74.1494 23.8213 74.1216 23.5361 74.2052C22.4215 74.484 21.281 74.4561 20.1405 74.4561C19.2851 74.4561 18.4297 74.4283 17.6003 74.4283C15.7858 74.4004 13.9713 74.1494 12.1828 73.8427C11.2237 73.6755 10.2647 73.536 9.33151 73.3409C7.8281 73.0342 6.35061 72.5602 4.92496 71.9468C4.19918 71.6401 3.70668 71.1103 3.34379 70.3575C2.07367 67.6809 1.14052 64.8927 0.699863 61.9094C0.570259 61.0729 0.440655 60.2365 0.31105 59.3721C0.0777626 57.8107 0 56.2215 0 54.6322C0.0518417 51.7047 0.129604 48.7771 0.466575 45.8774C0.673942 44.0093 0.90723 42.1412 1.39973 40.301C1.68486 39.1857 2.12551 38.1262 2.61801 37.0946C2.90314 36.4812 3.31787 35.9793 3.78444 35.5332C4.92496 34.5016 6.19508 33.7209 7.54297 33.0796C8.26875 32.7451 9.02046 32.4663 9.74624 32.1038C9.87584 32.048 9.84992 31.7971 9.74624 31.6019C9.46111 30.9328 9.17598 30.2636 8.89085 29.6223C8.37244 28.4513 8.00954 27.2524 7.69849 26.0256C7.18008 23.9066 7.25784 21.8154 7.67257 19.6964C8.08731 17.6053 8.78717 15.5978 9.56479 13.6461C10.3943 11.4992 11.2496 9.38018 12.0791 7.26117C12.8308 5.33733 13.2974 3.32984 13.3492 1.23871C13.3492 0.987777 13.4011 0.764723 13.4529 0.513787C13.5307 0.123443 14.075 -0.127492 14.412 0.0676797C14.5934 0.179207 14.8008 0.318615 14.9304 0.513787C15.1378 0.792605 15.2933 1.12719 15.4229 1.46177C16.4597 4.13841 16.9522 6.92659 16.8486 9.85417C16.7449 12.6981 16.1228 15.4026 15.2155 18.0514C14.749 19.4176 14.3083 20.8117 13.9454 22.2337C13.3492 24.5757 13.2196 26.9178 13.7899 29.2877C13.8936 29.7617 13.9713 30.2357 14.075 30.7097C14.1269 30.9328 14.3602 31.1837 14.5416 31.1837C15.734 31.0722 16.9004 30.9606 18.0928 30.8491C18.1964 30.8491 18.3779 30.5424 18.352 30.4309C18.352 30.3194 18.352 30.1799 18.326 30.0684C18.015 29.0647 18.0409 28.0331 18.015 27.0014C18.0668 25.2728 18.4038 23.7393 18.6889 22.1779C19 20.5608 19.311 18.9436 19.6221 17.3544C19.8813 16.016 19.8554 14.6777 19.8295 13.3394C19.8295 12.9212 19.7258 12.5029 19.6739 12.0847C19.6221 11.7222 19.5443 11.3598 19.4925 10.9973C19.4406 10.4676 19.5443 10.133 19.8035 10.0493C20.0887 9.93781 20.3738 10.1051 20.6071 10.5512C20.6848 10.7185 20.7885 10.8579 20.8663 11.0252C21.8513 13.2279 22.8622 15.4026 23.8472 17.6053C24.0286 18.0514 24.1582 18.5254 24.3138 18.9715C25.1432 21.5087 24.9099 24.0181 24.0546 26.4996C23.7953 27.3081 23.4325 28.0609 23.1473 28.8695C23.0177 29.2041 22.914 29.5387 22.7844 29.9011C22.7067 30.1242 22.8881 30.4309 23.0955 30.4309C23.6139 30.4309 24.1064 30.4309 24.6248 30.4309C26.3356 30.403 28.0204 30.7097 29.6535 31.2116C31.2087 31.6856 32.5825 32.4941 33.723 33.7488C33.8786 33.9161 34.0859 34.0834 34.1896 34.2786C34.9154 35.6448 35.9004 36.8716 36.2633 38.4329C36.5743 39.7434 36.8854 41.0259 37.1705 42.3364C37.352 43.2007 37.5075 44.0929 37.6889 44.9851ZM34.708 40.0222C34.4488 39.8828 34.2933 39.9943 34.1378 40.2174C32.9454 41.8345 31.442 43.0055 29.6535 43.7305C28.4352 44.2323 27.191 44.6227 25.8949 44.8179C23.6398 45.1524 21.3847 45.3755 19.1037 45.264C17.9632 45.2082 16.8486 45.1524 15.708 45.1524C13.3752 45.1524 11.0682 44.8736 8.78717 44.3439C6.8431 43.8978 4.9768 43.2007 3.42155 41.723C3.13642 41.4442 2.87721 41.5278 2.79945 41.8903C2.41064 43.9256 2.15143 45.9889 2.12551 48.0521C2.09959 50.5615 2.09959 53.043 2.09959 55.5523C2.09959 56.333 2.12551 57.1416 2.22919 57.9223C2.41064 59.3164 2.64393 60.6826 2.90314 62.0488C3.34379 64.3072 4.01773 66.5098 4.45839 68.7961C4.76944 70.3296 4.89904 70.4133 6.32469 70.7758C7.64665 71.1382 8.99454 71.3613 10.3424 71.4728C10.9127 71.5007 11.4829 71.5286 12.0273 71.6122C13.5566 71.8353 15.0859 71.9747 16.6153 71.9747C18.8185 71.9747 21.0218 72.0862 23.251 71.8353C25.3247 71.6122 27.4243 71.4728 29.4979 71.1103C31.2865 70.8036 33.0491 70.3018 34.7339 69.6326C35.0968 69.4932 35.2783 69.2144 35.3301 68.824C35.5893 66.6493 36.0818 64.5024 36.2892 62.3276C36.4706 60.571 36.5743 58.8145 36.4966 57.0301C36.367 53.9909 36.2114 50.9518 35.8485 47.9127C35.5634 45.2918 35.2524 42.6152 34.708 40.0222ZM14.9823 33.2191C15.06 33.47 15.1119 33.7767 15.2155 34.0555C15.5266 34.8362 15.8895 35.6169 16.2005 36.3976C16.3301 36.7322 16.4857 37.0667 16.5893 37.4013C16.693 37.7359 16.5375 37.9868 16.3301 38.2099C16.1487 38.4329 15.7599 38.4887 15.5525 38.3493C15.2674 38.1541 14.9563 37.959 14.6971 37.7359C13.7121 36.8994 12.8567 35.9236 12.0014 34.9477C10.8608 33.6094 11.0682 33.7767 9.53887 34.2786C9.04638 34.4459 8.5798 34.6689 8.13915 34.9198C7.12823 35.4775 6.14324 36.0909 5.36562 37.011C5.13233 37.2619 4.89904 37.5686 4.74352 37.8753C4.32878 38.6002 4.45839 39.4646 5.02865 40.0501C5.44338 40.4683 5.93587 40.8029 6.45429 41.0538C7.54297 41.6115 8.65756 41.9739 9.84992 42.2249C12.3124 42.7267 14.7749 43.0055 17.2892 43.0613C19.6739 43.1171 22.0586 43.1728 24.3915 42.6431C25.8172 42.5873 27.1651 42.0855 28.5129 41.6393C29.7831 41.2211 30.8977 40.5241 31.9086 39.6319C32.4529 39.1579 32.8158 38.5445 33.1268 37.9032C33.3342 37.4292 33.3083 36.9552 33.1268 36.4812C32.9972 36.2024 32.8676 35.9515 32.6862 35.7005C31.9863 34.8083 31.1569 34.0834 30.146 33.6094C29.0314 33.0796 27.8908 32.773 26.6985 32.6614C25.8431 32.5778 25.0136 32.4663 24.1582 32.3826C23.7176 32.3547 23.251 32.3547 22.8104 32.3268C22.5252 32.3268 22.2919 32.6057 22.3438 32.9402C22.3956 33.4979 22.4475 34.0276 22.4993 34.5853C22.5252 34.8362 22.5511 35.0593 22.5511 35.3102C22.5511 35.5611 22.2919 35.8957 22.0327 35.9794C21.7994 36.063 21.5662 36.0351 21.3847 35.8678C21.1773 35.6727 20.97 35.4496 20.8144 35.1987C20.3479 34.4459 19.8813 33.6652 19.4147 32.9124C19.2592 32.6614 19.0259 32.4663 18.6889 32.4941C17.8335 32.5778 17.0041 32.6893 16.1487 32.8008C15.734 32.8008 15.3192 32.8287 14.9823 33.2191ZM38.6739 60.9056C38.6221 61.6305 38.5702 62.2439 38.5184 62.8573C38.5184 62.9689 38.5184 63.1083 38.5702 63.1919C38.6221 63.2756 38.7258 63.3592 38.8294 63.3592C38.985 63.3592 39.1664 63.3035 39.296 63.2198C40.5921 62.5506 41.6807 61.5748 42.8213 60.6826C44.7912 59.1212 46.6057 57.3646 48.1869 55.3572C49.3274 53.9073 50.1828 52.2623 50.779 50.45C51.0641 49.6414 51.1678 48.8049 51.1418 47.9406C51.09 46.6302 50.5457 45.6264 49.4311 45.013C48.2387 44.3718 46.9686 44.0929 45.6466 44.1766C44.0395 44.2602 42.5102 44.7063 41.0586 45.3755C40.3329 45.7101 39.6589 46.1562 38.985 46.6023C38.3629 47.0484 38 47.5782 38.2073 48.4425C38.2851 48.8049 38.311 49.1674 38.3629 49.4741C38.648 49.6414 38.8554 49.5578 39.0627 49.4462C39.8404 48.9722 40.6439 48.4704 41.4993 48.1637C42.3028 47.857 43.1323 47.6618 43.9877 47.7733C45.5948 47.9685 46.6316 49.8366 46.3983 51.2028C46.2687 51.9835 46.1132 52.7642 45.7244 53.4612C45.3874 54.0188 45.0504 54.6043 44.7135 55.162C44.1691 56.11 43.3656 56.807 42.6398 57.5877C41.7585 58.5357 40.7994 59.4 39.7367 60.1249C39.3997 60.348 39.0887 60.5989 38.6739 60.9056ZM38.6739 51.8162C38.648 52.1508 38.5961 52.3459 38.6221 52.5132C38.7258 54.2698 38.8035 56.0263 38.9072 57.7829C38.9072 57.8386 38.959 57.9223 38.985 57.9223C39.0886 57.9502 39.2442 57.978 39.296 57.9223C40.3847 56.9464 41.4474 55.9427 42.4065 54.8553C43.3137 53.8237 43.9618 52.6247 44.2469 51.2307C44.3506 50.7567 43.9099 50.0596 43.4434 50.0317C43.2101 50.0039 43.0027 50.0039 42.7694 50.0596C41.2919 50.2548 39.97 50.9518 38.6739 51.8162Z" fill="black"/>
<path d="M23.6654 52.2066C23.1988 51.4816 22.5767 51.1749 21.7732 51.2307C21.2548 51.2865 20.7882 51.5095 20.3994 51.872C19.9846 52.2623 19.5958 52.7363 19.3366 53.2661C19.1811 53.5728 19.0256 53.9073 18.87 54.2419C18.7923 54.4092 18.559 54.4092 18.4812 54.2419C18.2739 53.8795 18.0924 53.517 17.8851 53.1266C17.574 52.5411 17.1593 52.0393 16.6927 51.5932C16.0447 51.0076 15.3189 50.7846 14.4894 50.8682C13.9969 50.924 13.634 51.1749 13.323 51.5653C12.986 51.9835 12.7786 52.4854 12.7527 53.0709C12.7268 53.6285 12.7009 54.1862 12.7786 54.7159C12.9601 56.1658 13.2971 57.5877 13.8155 58.9539C14.619 60.9614 15.4744 62.9689 16.4594 64.8928C16.7705 65.4783 17.1333 66.008 17.5481 66.5099C18.3775 67.5136 19.2329 67.5694 20.2438 66.733C20.3735 66.6214 20.5031 66.5099 20.6327 66.3705C21.2288 65.7013 21.7732 65.0043 22.1879 64.1957C23.1729 62.3276 23.8468 60.3201 24.2616 58.229C24.443 57.3368 24.4949 56.4167 24.5467 55.9706C24.4689 54.3256 24.3134 53.2103 23.6654 52.2066ZM22.81 56.5003C22.3175 59.4837 21.2548 62.2161 19.6477 64.6976C19.544 64.837 19.4144 64.9764 19.3107 65.0879C19.2329 65.1995 18.9219 65.1995 18.8441 65.1158C18.7664 65.0322 18.6627 64.9485 18.6108 64.8649C17.0037 62.2719 15.5522 59.5952 14.6709 56.584C14.4376 55.8312 14.2821 55.0505 14.1525 54.2698C14.0747 53.8516 14.1006 53.4334 14.1525 53.0151C14.2043 52.5133 14.7486 52.2066 15.1893 52.4017C15.3967 52.4854 15.604 52.6248 15.7595 52.7642C16.2002 53.1545 16.5372 53.6285 16.8223 54.1862C17.2111 54.9947 17.5999 55.8033 17.8073 56.6955C17.8591 56.8628 17.911 57.058 17.9628 57.2253C18.0406 57.5041 18.2739 57.6993 18.4294 57.6435C18.5849 57.5877 18.7404 57.4762 18.8182 57.3647C18.9478 57.1695 19.0515 56.9465 19.1552 56.7234C19.4662 56.1379 19.7773 55.5524 20.0883 54.9947C20.4771 54.3256 20.9178 53.6843 21.488 53.1824C21.9287 52.7642 22.2916 52.9315 22.6026 53.4612C22.7063 53.6564 22.7841 53.9073 22.8359 54.1304C22.8878 54.4929 22.8878 54.8553 22.9137 55.2178C22.8878 55.636 22.8619 56.0821 22.81 56.5003Z" fill="black"/>
<path d="M22.9141 55.1897C22.8623 55.6358 22.8623 56.0541 22.7845 56.4723C22.292 59.4556 21.2293 62.188 19.6222 64.6695C19.5185 64.8089 19.3889 64.9483 19.2852 65.0598C19.2074 65.1714 18.8964 65.1714 18.8186 65.0877C18.7409 65.0041 18.6372 64.9204 18.5853 64.8368C16.9783 62.2438 15.5267 59.5671 14.6454 56.5559C14.4121 55.8031 14.2566 55.0224 14.127 54.2417C14.0492 53.8235 14.0751 53.4053 14.127 52.9871C14.1788 52.4852 14.7231 52.1785 15.1638 52.3737C15.3712 52.4573 15.5785 52.5967 15.7341 52.7361C16.1747 53.1265 16.5117 53.6005 16.7968 54.1581C17.1856 54.9667 17.5744 55.7752 17.7818 56.6675C17.8336 56.8347 17.8855 57.0299 17.9373 57.1972C18.0151 57.476 18.2484 57.6712 18.4039 57.6154C18.5594 57.5597 18.715 57.4481 18.7927 57.3366C18.9223 57.1414 19.026 56.9184 19.1297 56.6953C19.4407 56.1098 19.7518 55.5243 20.0628 54.9667C20.4516 54.2975 20.8923 53.6562 21.4626 53.1544C21.9032 52.7361 22.2661 52.9034 22.5772 53.4332C22.6808 53.6284 22.7586 53.8793 22.8104 54.1023C22.8882 54.4927 22.9141 54.8551 22.9141 55.1897Z" fill="black"/>
</svg>
