<svg width="128" height="83" viewBox="0 0 128 83" fill="none" xmlns="http://www.w3.org/2000/svg">
<g clip-path="url(#clip0_1154_3730)">
<path d="M15.4514 36.1862C13.3626 31.9693 11.3382 27.8478 9.28162 23.6785C8.89303 22.8988 8.46444 22.1114 8.12356 21.2994C7.74269 20.4798 7.345 19.5325 8.47608 19.0465C9.56717 18.5528 10.0526 19.4756 10.4812 20.2631C10.8452 20.9551 11.2015 21.6872 11.5256 22.3715C13.5254 26.4054 15.5574 30.487 17.5572 34.5209C22.1511 32.2175 26.514 30.0352 31.1556 27.6996C30.6465 25.6117 30.1129 23.4362 29.5392 21.253C29.1942 19.8185 28.7215 18.4008 28.4165 16.9741C28.1851 15.8103 27.1034 14.1091 28.8098 13.6515C30.7794 13.1204 30.5623 15.3165 30.9214 16.4636C31.6227 18.6301 32.1086 20.8378 32.6823 23.021C33.0259 24.248 33.3695 25.4749 33.6732 26.6941C39.4659 25.7001 45.1709 24.7305 51.219 23.7029C51.119 21.8599 50.993 19.7217 50.8592 17.6235C50.7696 16.1556 50.6 14.6721 50.5104 13.2042C50.4481 12.2388 50.2799 10.9629 51.5891 10.843C52.9461 10.6908 52.9943 11.9435 53.0489 12.9488C53.2317 15.2223 53.3823 17.4481 53.5651 19.7216C53.6779 21.0697 53.8307 22.4255 53.9925 23.9489C58.5734 24.5028 63.0342 25.0335 67.8627 25.5939C68.517 23.0677 69.2344 20.4294 69.9041 17.8234C70.2466 16.4804 70.5492 15.1297 70.9318 13.7944C71.1971 12.851 71.3243 11.5493 72.6363 11.8443C74.1882 12.1858 73.598 13.5223 73.3572 14.5534C72.6966 17.327 71.956 20.0852 71.2954 22.8588C71.0314 24.0097 70.8552 25.1361 70.608 26.4147C74.3559 27.8437 77.9838 29.2496 81.884 30.7496C83.3689 28.2182 84.8539 25.6869 86.3789 23.1632C87.0505 22.0497 87.6744 20.9683 88.346 19.8547C88.7881 19.0698 89.3734 18.1882 90.3991 18.6766C91.6815 19.339 90.9454 20.3572 90.5278 21.2297C90.1811 21.9502 89.7222 22.6075 89.3432 23.2803C87.7242 26.0759 86.0974 28.9114 84.3598 31.8913C88.4436 34.5873 92.4074 37.2601 96.6435 40.0269C97.0561 39.6093 97.6441 39.1427 98.1276 38.573C100.054 36.3342 101.908 34.04 103.842 31.7612C104.278 31.2237 104.689 30.5986 105.286 30.2996C105.708 30.0495 106.538 30.0443 106.86 30.3137C107.181 30.583 107.234 31.3808 107.062 31.8448C106.818 32.4608 106.262 32.9751 105.826 33.5126C103.56 36.2244 101.286 38.9762 98.8126 41.8969C101.547 44.7051 104.289 47.4733 107.169 50.3923C107.813 50.061 108.53 49.7852 109.183 49.414C112.684 47.3967 116.153 45.3318 119.695 43.3223C120.721 42.7332 122.158 41.3115 123.038 42.7666C124.112 44.5077 121.958 44.9203 120.876 45.5815C117.766 47.5085 114.598 49.3002 111.423 51.1318C110.675 51.5675 109.855 51.9477 108.884 52.4646C109.835 53.7676 110.48 54.7213 111.221 55.6105C112.131 56.6982 112.138 57.7357 111.234 58.763C110.124 59.999 109.046 61.2828 107.759 62.3603C101.197 67.7648 93.4673 70.6226 85.1529 71.9996C73.926 73.8498 62.8952 72.7537 52.0506 69.6213C40.4139 66.2943 29.8496 60.8535 20.7935 52.7615C17.7881 50.0668 15.0999 47.0188 12.4516 43.9787C10.4151 41.637 10.7641 40.0466 13.2348 37.9959C13.9259 37.4249 14.6171 36.8539 15.4514 36.1862ZM48.7793 41.2608C47.1342 49.771 48.1943 55.447 51.1952 59.8816C56.5595 67.7573 66.4964 68.9321 73.5072 62.4953C76.7386 59.514 78.7352 55.8381 79.5616 51.563C80.9749 44.2514 79.6926 37.5792 74.1694 32.2425C69.627 27.8415 63.2956 27.115 57.7643 30.1905C52.2885 33.1938 49.4448 38.0322 48.7793 41.2608ZM56.7621 27.2198C45.2341 24.6184 21.1386 32.5191 13.7289 41.4486C24.4037 55.1173 38.6042 63.2089 55.1766 67.6144C41.6364 59.1115 41.4325 36.7736 56.7621 27.2198ZM109.173 57.6186C103.486 47.9811 85.9382 33.8129 78.4457 32.6547C87.1463 44.947 82.5535 65.4873 65.6944 69.6475C81.6245 71.1518 96.662 69.3336 109.173 57.6186Z" fill="black"/>
<path d="M48.7791 41.2607C49.477 38.0798 52.2883 33.1937 57.7719 30.1504C63.2955 27.1148 69.6346 27.8014 74.177 32.2024C79.7002 37.5391 80.9825 44.2113 79.5692 51.5229C78.7428 55.798 76.7385 59.5139 73.5148 62.4552C66.504 68.892 56.5671 67.7172 51.2028 59.8416C48.1942 55.4468 47.1341 49.7709 48.7791 41.2607Z" fill="black"/>
<path d="M56.7622 27.2199C41.4326 36.7737 41.6043 59.0639 55.1768 67.6145C38.6366 63.2567 24.4438 55.1251 13.7291 41.4487C21.1387 32.5192 45.2342 24.6185 56.7622 27.2199Z" fill="white"/>
<path d="M109.173 57.6186C96.7019 69.3413 81.6721 71.1195 65.6943 69.6474C82.5457 65.5272 87.0985 44.9791 78.4456 32.6546C85.8981 33.8051 103.486 47.9811 109.173 57.6186Z" fill="white"/>
<path d="M74.9315 44.0426C74.9512 45.1814 74.9655 46.2245 74.9984 47.2949C74.9918 47.5774 75.0502 47.896 74.9598 48.115C74.8332 48.3979 74.5546 48.7224 74.3058 48.7688C74.08 48.8198 73.6803 48.5297 73.5306 48.3116C72.8898 47.4075 72.281 46.4622 71.5929 45.4307C70.5589 45.9402 69.7088 46.367 68.8632 46.771C68.5185 46.9408 68.1706 47.2519 67.8061 47.276C67.4141 47.3185 66.8823 47.2156 66.6213 46.9524C66.4584 46.8027 66.5311 46.1783 66.704 45.9044C67.3405 44.8452 68.0926 43.8083 68.9306 42.5753C68.3856 42.0443 67.8825 41.5451 67.3793 41.0459C67.0952 40.7781 66.7055 40.5609 66.504 40.2382C66.3069 39.8928 66.2706 39.4601 66.1561 39.0597C66.5756 38.9989 66.9941 38.8197 67.3916 38.8729C67.9553 38.9346 68.4794 39.2014 69.03 39.3315C70.4272 39.6725 70.6342 39.5943 71.3798 38.3434C71.807 37.622 72.0813 36.8238 72.5129 36.0797C72.6902 35.783 73.0393 35.5903 73.3234 35.3615C73.5986 35.6748 74.049 35.951 74.1029 36.2925C74.3638 37.5488 74.5002 38.8283 74.6983 40.2853C75.7609 40.3725 76.8322 40.4141 77.886 40.5468C78.2835 40.6 78.6325 40.9039 78.9991 41.1167C78.7668 41.4501 78.5906 41.8653 78.2834 42.0896C77.191 42.777 76.0381 43.4053 74.9315 44.0426Z" fill="white"/>
</g>
<defs>
<clipPath id="clip0_1154_3730">
<rect width="118" height="61" fill="white" transform="translate(11.5771) rotate(10.9404)"/>
</clipPath>
</defs>
</svg>
