<svg width="67" height="64" viewBox="0 0 67 64" fill="none" xmlns="http://www.w3.org/2000/svg">
<path d="M67 36C67 53.9493 50.9493 63.5 33 63.5C15.0507 63.5 0 46.9493 0 29C0 11.0507 21.0507 0 39 0C56.9493 0 67 18.0507 67 36Z" fill="#FF8228"/>
<path d="M38.5807 25.7935C39.1787 25.7422 39.5545 25.7422 39.9304 25.6739C41.0067 25.4518 42.1001 25.2297 43.1764 24.9734C44.7823 24.5805 46.4053 24.4609 47.9942 24.8709C48.968 25.1272 49.9418 25.5543 50.7789 26.1181C52.4019 27.1944 52.4532 29.2787 50.9668 30.5771C50.5227 30.97 50.0101 31.2605 49.4293 31.6534C50.4372 32.0805 51.3769 32.4735 51.7698 33.601C52.1798 34.7969 51.8723 35.6853 50.8131 36.4712C51.8552 37.2912 52.7265 38.1796 52.6582 39.5805C52.5899 41.0669 51.4965 41.7332 50.3006 42.3994C50.5397 42.6557 50.7448 42.8778 50.9498 43.0999C52.1798 44.535 51.7015 46.5338 49.9418 47.1489C49.2072 47.4051 48.3871 47.5247 47.6183 47.5077C45.722 47.4393 43.8427 47.2343 41.9463 47.0805C39.9645 46.9097 38.1194 46.2947 36.2572 45.56C33.1137 44.3129 29.9361 43.0999 26.5875 42.3994C25.9042 42.2628 25.1866 42.2457 24.4691 42.1773C21.5818 41.8869 19.2071 43.2024 16.8495 44.5862C16.5761 44.74 16.3199 44.9279 16.0294 45.0646C15.329 45.4063 14.8677 45.1671 14.7823 44.3812C14.7139 43.7149 14.7481 43.0316 14.7481 42.3653C14.7481 37.855 14.4747 33.3618 14.0476 28.8687C13.8939 27.2456 14.0306 27.1431 15.7048 27.1602C16.9349 27.1773 18.1479 27.2115 19.3779 27.2456C23.6149 27.3994 27.1171 25.5543 30.3461 23.1112C32.9087 21.1636 34.5146 18.5839 35.2151 15.4575C35.4372 14.4495 35.6422 13.4415 35.8472 12.4506C35.9156 12.1089 35.9497 11.7502 36.0522 11.4085C36.4452 10.1613 37.6069 9.70006 38.7857 10.1955C41.0067 11.1351 42.0147 12.8265 42.083 15.2012C42.1513 17.6784 41.4851 19.9506 40.3575 22.1374C39.7937 23.2821 39.247 24.4438 38.5807 25.7935ZM24.2299 40.9814C25.1524 41.101 25.9896 41.1523 26.7925 41.3231C30.0556 42.0065 33.1479 43.2024 36.2402 44.3983C38.3245 45.2013 40.3746 45.9188 42.6126 46.0897C43.1251 46.1238 43.6377 46.2434 44.1502 46.2776C45.6024 46.3459 47.0716 46.3972 48.5238 46.4143C48.8996 46.4143 49.3097 46.2776 49.6684 46.1238C50.6081 45.7309 50.9156 44.6546 50.2493 43.8858C49.9418 43.527 49.4463 43.1853 48.9851 43.0999C48.2163 42.9632 47.4133 43.0657 46.6445 43.0316C46.4053 43.0145 46.1662 42.8436 45.9441 42.7582C46.0807 42.5019 46.1662 42.1432 46.3712 42.0407C46.6616 41.8869 47.0545 41.8698 47.3962 41.8527C48.4725 41.8015 49.5147 41.5965 50.4714 41.0669C51.206 40.6739 51.7356 40.0931 51.599 39.1705C51.4452 38.265 50.9327 37.65 50.0443 37.4279C49.5488 37.3083 49.0363 37.24 48.5238 37.2229C47.8062 37.2058 47.1058 37.2571 46.3883 37.24C45.9611 37.2229 45.2949 37.4621 45.2778 36.7445C45.2778 36.1466 45.8757 36.2662 46.2857 36.232C46.9179 36.1978 47.55 36.2149 48.1821 36.1124C48.7971 36.0099 49.4293 35.8732 49.993 35.617C51.1206 35.1215 51.1719 33.7548 50.1468 33.0885C49.9589 32.9689 49.7197 32.8835 49.4976 32.8151C48.3017 32.5076 47.1058 32.2514 45.8757 32.5076C45.4828 32.593 45.0044 32.7126 44.8848 32.2001C44.7482 31.6022 45.2949 31.5338 45.7049 31.4313C46.4053 31.2605 47.1058 31.175 47.7721 30.9359C48.575 30.6454 49.4122 30.3379 50.1126 29.8425C51.3256 28.9712 51.2744 27.6557 50.0785 26.8015C49.1217 26.1181 48.0625 25.7593 46.8837 25.691C45.4486 25.5885 44.0648 25.7935 42.6639 26.1181C41.3313 26.4256 39.9475 26.6306 38.5807 26.7673C37.4702 26.8869 37.2311 26.4939 37.6582 25.4176C37.9315 24.7172 38.2732 24.0509 38.5807 23.3675C39.2299 21.9324 39.9816 20.5315 40.5283 19.0452C41.1946 17.2342 41.3142 15.3379 40.7846 13.4586C40.5112 12.4506 39.862 11.7673 38.7516 11.4597C38.7003 12.7752 38.4953 14.0736 37.5727 14.9108C36.3427 16.0042 35.7106 17.3538 35.1297 18.8231C34.8905 19.4381 34.5147 20.019 34.1388 20.5657C32.4816 23.0087 30.2436 24.7343 27.6809 26.0668C26.485 26.6819 25.255 27.1944 23.9565 27.7923C24.059 32.183 24.1445 36.5908 24.2299 40.9814ZM20.9155 28.2195C21.206 32.6101 21.4964 36.83 21.7868 41.1523C22.231 41.1181 22.641 41.101 23.1194 41.0669C23.1365 36.6762 23.1023 32.4051 22.8631 28.0657C22.1798 28.134 21.5989 28.1682 20.9155 28.2195ZM37.4702 11.2889C36.7698 12.0919 36.8552 13.0998 36.7356 14.0566C37.4873 13.2707 37.6582 12.3481 37.4702 11.2889Z" fill="black"/>
<path d="M24.23 40.9814C24.1445 36.5737 24.042 32.1659 23.9566 27.7923C25.255 27.1944 26.4851 26.6819 27.681 26.0668C30.2436 24.7513 32.4817 23.0258 34.1218 20.5998C34.4976 20.0531 34.8735 19.4723 35.1127 18.8572C35.6935 17.4051 36.3427 16.0383 37.5557 14.9449C38.4783 14.1078 38.6833 12.8094 38.7345 11.4939C39.845 11.8014 40.4771 12.4848 40.7676 13.4928C41.2972 15.372 41.1776 17.2684 40.5113 19.0793C39.9646 20.5486 39.23 21.9666 38.5637 23.4017C38.2562 24.085 37.9145 24.7513 37.6411 25.4518C37.214 26.511 37.4532 26.904 38.5637 26.8014C39.9304 26.6648 41.3143 26.4598 42.6468 26.1522C44.0478 25.8276 45.4316 25.6226 46.8667 25.7251C48.0455 25.8106 49.1047 26.1693 50.0614 26.8356C51.2573 27.6898 51.3257 29.0053 50.0956 29.8766C49.3952 30.3721 48.558 30.6796 47.7551 30.97C47.0888 31.2092 46.3712 31.2946 45.6879 31.4655C45.2607 31.568 44.7311 31.6363 44.8678 32.2343C44.9874 32.7468 45.4658 32.6101 45.8587 32.5418C47.0888 32.2855 48.3018 32.5418 49.4806 32.8493C49.7027 32.9005 49.9418 32.986 50.1298 33.1226C51.1719 33.806 51.1036 35.1557 49.976 35.6511C49.4122 35.9074 48.7801 36.0441 48.1651 36.1466C47.55 36.2491 46.9008 36.232 46.2687 36.2662C45.8587 36.3003 45.2437 36.1807 45.2607 36.7787C45.2607 37.4962 45.9441 37.257 46.3712 37.2741C47.0888 37.2912 47.7892 37.2229 48.5068 37.257C49.0193 37.2741 49.5318 37.3425 50.0273 37.4621C50.9327 37.6842 51.4453 38.2992 51.5819 39.2047C51.7357 40.1272 51.2061 40.7081 50.4544 41.101C49.4977 41.6136 48.4555 41.8356 47.3792 41.8869C47.0375 41.904 46.6446 41.904 46.3541 42.0748C46.1491 42.1944 46.0637 42.5532 45.927 42.7924C46.1662 42.8949 46.3883 43.0486 46.6275 43.0657C47.4134 43.117 48.2163 43.0145 48.968 43.1341C49.4293 43.2195 49.9077 43.5612 50.2323 43.9199C50.8986 44.6887 50.5911 45.765 49.6514 46.158C49.2926 46.3117 48.8826 46.4484 48.5068 46.4484C47.0546 46.4313 45.5854 46.3801 44.1332 46.3117C43.6207 46.2947 43.1081 46.1751 42.5956 46.1238C40.3575 45.953 38.3074 45.2354 36.2231 44.4325C33.148 43.2366 30.0386 42.0407 26.7755 41.3573C25.9896 41.1694 25.1696 41.1181 24.23 40.9814Z" fill="white"/>
<path d="M20.9155 28.2194C21.5989 28.1682 22.1798 28.1169 22.8631 28.0657C23.1023 32.4051 23.1365 36.6762 23.1194 41.0668C22.641 41.101 22.231 41.1352 21.7868 41.1523C21.4964 36.847 21.223 32.6101 20.9155 28.2194Z" fill="white"/>
<path d="M37.4702 11.2891C37.6581 12.3312 37.4872 13.2708 36.7355 14.0567C36.8551 13.1 36.7697 12.092 37.4702 11.2891Z" fill="white"/>
</svg>
